<?xml version="1.0" encoding="UTF-8" standalone="no"?>
<!-- Created with Inkscape (http://www.inkscape.org/) -->

<svg
   xmlns:dc="http://purl.org/dc/elements/1.1/"
   xmlns:cc="http://creativecommons.org/ns#"
   xmlns:rdf="http://www.w3.org/1999/02/22-rdf-syntax-ns#"
   xmlns:svg="http://www.w3.org/2000/svg"
   xmlns="http://www.w3.org/2000/svg"
   xmlns:sodipodi="http://sodipodi.sourceforge.net/DTD/sodipodi-0.dtd"
   xmlns:inkscape="http://www.inkscape.org/namespaces/inkscape"
   width="63.694904mm"
   height="49.243511mm"
   viewBox="0 0 63.694904 49.243511"
   version="1.1"
   id="svg8"
   inkscape:version="0.92.2 (5c3e80d, 2017-08-06)"
   sodipodi:docname="tracribe-svg-1.svg">
  <defs
     id="defs2" />
  <sodipodi:namedview
     id="base"
     pagecolor="#ffffff"
     bordercolor="#666666"
     borderopacity="1.0"
     inkscape:pageopacity="0.0"
     inkscape:pageshadow="2"
     inkscape:zoom="0.98994949"
     inkscape:cx="18.424394"
     inkscape:cy="69.84585"
     inkscape:document-units="mm"
     inkscape:current-layer="layer1"
     showgrid="false"
     fit-margin-top="0"
     fit-margin-left="0"
     fit-margin-right="0"
     fit-margin-bottom="0"
     inkscape:window-width="1440"
     inkscape:window-height="786"
     inkscape:window-x="0"
     inkscape:window-y="23"
     inkscape:window-maximized="0" />
  <metadata
     id="metadata5">
    <rdf:RDF>
      <cc:Work
         rdf:about="">
        <dc:format>image/svg+xml</dc:format>
        <dc:type
           rdf:resource="http://purl.org/dc/dcmitype/StillImage" />
        <dc:title></dc:title>
      </cc:Work>
    </rdf:RDF>
  </metadata>
  <g
     inkscape:label="Layer 1"
     inkscape:groupmode="layer"
     id="layer1"
     transform="translate(-67.960456,-116.21021)">
    <path
       inkscape:connector-curvature="0"
       id="path910"
       d="m 69.15243,117.26855 h 53.58755 v 30.69652 h -5.61266 v -11.2184 H 74.89873 v 19.84795 h 25.52422 v 5.67084 H 69.01879 Z"
       style="fill:#d8cdcd;fill-opacity:1;fill-rule:evenodd;stroke:none;stroke-width:0.26499999;stroke-linecap:butt;stroke-linejoin:miter;stroke-miterlimit:4;stroke-dasharray:none;stroke-opacity:1" />
    <path
       style="fill:#e3dbdb;fill-opacity:1;fill-rule:evenodd;stroke:none;stroke-width:0.26499999;stroke-linecap:butt;stroke-linejoin:miter;stroke-miterlimit:4;stroke-dasharray:none;stroke-opacity:1"
       d="m 68.094096,116.21021 h 53.587544 v 30.69652 h -5.61266 v -11.2184 H 73.840396 v 19.84795 h 25.52422 v 5.67084 h -31.40416 z"
       id="path75"
       inkscape:connector-curvature="0" />
    <path
       inkscape:connector-curvature="0"
       id="path916"
       d="m 78.063553,120.53553 a 5.3861607,5.3861607 0 0 0 -5.38623,5.38624 5.3861607,5.3861607 0 0 0 5.38623,5.38571 5.3861607,5.3861607 0 0 0 5.38623,-5.38571 5.3861607,5.3861607 0 0 0 -5.38623,-5.38624 z m 0,1.60352 a 3.7825436,3.7825436 0 0 1 3.78272,3.78272 3.7825436,3.7825436 0 0 1 -3.78272,3.78219 3.7825436,3.7825436 0 0 1 -3.78272,-3.78219 3.7825436,3.7825436 0 0 1 3.78272,-3.78272 z"
       style="opacity:1;fill:#957676;fill-opacity:1;fill-rule:nonzero;stroke:none;stroke-width:0.52916664;stroke-linecap:round;stroke-linejoin:miter;stroke-miterlimit:3.0999999;stroke-dasharray:none;stroke-opacity:1" />
    <path
       style="opacity:1;fill:#ac9393;fill-opacity:1;fill-rule:nonzero;stroke:none;stroke-width:0.52916664;stroke-linecap:round;stroke-linejoin:miter;stroke-miterlimit:3.0999999;stroke-dasharray:none;stroke-opacity:1"
       d="m 77.534386,120.00636 a 5.3861607,5.3861607 0 0 0 -5.38623,5.38624 5.3861607,5.3861607 0 0 0 5.38623,5.38571 5.3861607,5.3861607 0 0 0 5.38623,-5.38571 5.3861607,5.3861607 0 0 0 -5.38623,-5.38624 z m 0,1.60352 a 3.7825436,3.7825436 0 0 1 3.78272,3.78272 3.7825436,3.7825436 0 0 1 -3.78272,3.78219 3.7825436,3.7825436 0 0 1 -3.78272,-3.78219 3.7825436,3.7825436 0 0 1 3.78272,-3.78272 z"
       id="path79"
       inkscape:connector-curvature="0" />
    <rect
       style="opacity:1;fill:#e9afaf;fill-opacity:1;fill-rule:nonzero;stroke:none;stroke-width:0.52916664;stroke-linecap:round;stroke-linejoin:miter;stroke-miterlimit:3.0999999;stroke-dasharray:none;stroke-opacity:1"
       id="rect84"
       width="26.660135"
       height="3.8085907"
       x="88.065437"
       y="120.9362" />
    <rect
       style="opacity:1;fill:#e6a8a8;fill-opacity:1;fill-rule:nonzero;stroke:none;stroke-width:0.52916664;stroke-linecap:round;stroke-linejoin:miter;stroke-miterlimit:3.0999999;stroke-dasharray:none;stroke-opacity:1"
       id="rect912"
       width="21.982918"
       height="3.8085907"
       x="88.460968"
       y="127.07803" />
    <rect
       y="126.54886"
       x="87.931801"
       height="3.8085907"
       width="21.982918"
       id="rect86"
       style="opacity:1;fill:#f4d7d7;fill-opacity:1;fill-rule:nonzero;stroke:none;stroke-width:0.52916664;stroke-linecap:round;stroke-linejoin:miter;stroke-miterlimit:3.0999999;stroke-dasharray:none;stroke-opacity:1" />
    <path
       style="opacity:1;fill:#37c871;fill-opacity:1;fill-rule:nonzero;stroke:none;stroke-width:0.52916664;stroke-linecap:round;stroke-linejoin:miter;stroke-miterlimit:3.0999999;stroke-dasharray:none;stroke-opacity:1"
       d="m 128.83302,144.58015 -6.20406,7.12752 -3.62263,4.16185 -3.74739,4.30518 -8.46703,-7.37003 -2.45667,2.82235 8.46703,7.37003 2.82234,2.45667 2.45667,-2.82234 3.74739,-4.30518 3.62263,-4.16185 6.20406,-7.12753 z"
       id="rect901"
       inkscape:connector-curvature="0" />
    <rect
       style="opacity:1;fill:#df8a8a;fill-opacity:1;fill-rule:nonzero;stroke:none;stroke-width:0.52916664;stroke-linecap:round;stroke-linejoin:miter;stroke-miterlimit:3.0999999;stroke-dasharray:none;stroke-opacity:1"
       id="rect914"
       width="26.660135"
       height="3.8085907"
       x="88.594604"
       y="121.46537" />
    <rect
       y="120.9362"
       x="88.065437"
       height="3.8085907"
       width="26.660135"
       id="rect908"
       style="opacity:1;fill:#e9afaf;fill-opacity:1;fill-rule:nonzero;stroke:none;stroke-width:0.52916664;stroke-linecap:round;stroke-linejoin:miter;stroke-miterlimit:3.0999999;stroke-dasharray:none;stroke-opacity:1" />
  </g>
</svg>
